<svg width="375" height="293" viewBox="0 0 375 293" fill="none" xmlns="http://www.w3.org/2000/svg">
<g clip-path="url(#clip0_1_759)">
<rect width="375" height="293" fill="url(#paint0_linear_1_759)"/>
<mask id="mask0_1_759" style="mask-type:alpha" maskUnits="userSpaceOnUse" x="0" y="0" width="375" height="293">
<rect width="375" height="293" fill="#1A4A57"/>
</mask>
<g mask="url(#mask0_1_759)">
<rect opacity="0.7" x="-174" y="122.03" width="628.945" height="245.414" transform="rotate(-36.8315 -174 122.03)" fill="url(#paint1_linear_1_759)" fill-opacity="0.2"/>
<rect opacity="0.7" x="503.526" y="197.43" width="628.945" height="245.414" transform="rotate(143.168 503.526 197.43)" fill="url(#paint2_linear_1_759)" fill-opacity="0.2"/>
</g>
<g opacity="0.06">
<line y1="-2" x2="538.53" y2="-2" transform="matrix(0.586967 -0.809611 0.234904 0.972019 -259 391)" stroke="white" stroke-width="4"/>
<line y1="-2" x2="538.53" y2="-2" transform="matrix(0.586967 -0.809611 0.234904 0.972019 -233.901 391)" stroke="white" stroke-width="4"/>
<line y1="-2" x2="538.53" y2="-2" transform="matrix(0.586967 -0.809611 0.234904 0.972019 -208.802 391)" stroke="white" stroke-width="4"/>
<line y1="-2" x2="538.53" y2="-2" transform="matrix(0.586967 -0.809611 0.234904 0.972019 -183.702 391)" stroke="white" stroke-width="4"/>
<line y1="-2" x2="538.53" y2="-2" transform="matrix(0.586967 -0.809611 0.234904 0.972019 -158.603 391)" stroke="white" stroke-width="4"/>
<line y1="-2" x2="538.53" y2="-2" transform="matrix(0.586967 -0.809611 0.234904 0.972019 -133.504 391)" stroke="white" stroke-width="4"/>
<line y1="-2" x2="538.53" y2="-2" transform="matrix(0.586967 -0.809611 0.234904 0.972019 -108.405 391)" stroke="white" stroke-width="4"/>
<line y1="-2" x2="538.53" y2="-2" transform="matrix(0.586967 -0.809611 0.234904 0.972019 -83.3053 391)" stroke="white" stroke-width="4"/>
<line y1="-2" x2="538.53" y2="-2" transform="matrix(0.586967 -0.809611 0.234904 0.972019 -58.2061 391)" stroke="white" stroke-width="4"/>
<line y1="-2" x2="538.53" y2="-2" transform="matrix(0.586967 -0.809611 0.234904 0.972019 -33.1068 391)" stroke="white" stroke-width="4"/>
<line y1="-2" x2="538.53" y2="-2" transform="matrix(0.586967 -0.809611 0.234904 0.972019 -8.00757 391)" stroke="white" stroke-width="4"/>
<line y1="-2" x2="538.53" y2="-2" transform="matrix(0.586967 -0.809611 0.234904 0.972019 17.0917 391)" stroke="white" stroke-width="4"/>
<line y1="-2" x2="538.53" y2="-2" transform="matrix(0.586967 -0.809611 0.234904 0.972019 42.1909 391)" stroke="white" stroke-width="4"/>
<line y1="-2" x2="538.53" y2="-2" transform="matrix(0.586967 -0.809611 0.234904 0.972019 67.2902 391)" stroke="white" stroke-width="4"/>
<line y1="-2" x2="538.53" y2="-2" transform="matrix(0.586967 -0.809611 0.234904 0.972019 92.3894 391)" stroke="white" stroke-width="4"/>
<line y1="-2" x2="538.53" y2="-2" transform="matrix(0.586967 -0.809611 0.234904 0.972019 117.489 391)" stroke="white" stroke-width="4"/>
<line y1="-2" x2="538.53" y2="-2" transform="matrix(0.586967 -0.809611 0.234904 0.972019 142.588 391)" stroke="white" stroke-width="4"/>
<line y1="-2" x2="538.53" y2="-2" transform="matrix(0.586967 -0.809611 0.234904 0.972019 167.687 391)" stroke="white" stroke-width="4"/>
<line y1="-2" x2="538.53" y2="-2" transform="matrix(0.586967 -0.809611 0.234904 0.972019 192.786 391)" stroke="white" stroke-width="4"/>
<line y1="-2" x2="538.53" y2="-2" transform="matrix(0.586967 -0.809611 0.234904 0.972019 217.886 391)" stroke="white" stroke-width="4"/>
<line y1="-2" x2="538.53" y2="-2" transform="matrix(0.586967 -0.809611 0.234904 0.972019 242.985 391)" stroke="white" stroke-width="4"/>
<line y1="-2" x2="538.53" y2="-2" transform="matrix(0.586967 -0.809611 0.234904 0.972019 268.084 391)" stroke="white" stroke-width="4"/>
<line y1="-2" x2="538.53" y2="-2" transform="matrix(0.586967 -0.809611 0.234904 0.972019 293.183 391)" stroke="white" stroke-width="4"/>
<line y1="-2" x2="538.53" y2="-2" transform="matrix(0.586967 -0.809611 0.234904 0.972019 318.283 391)" stroke="white" stroke-width="4"/>
</g>
</g>
<defs>
<linearGradient id="paint0_linear_1_759" x1="187.5" y1="0" x2="187.5" y2="293" gradientUnits="userSpaceOnUse">
<stop stop-color="#3081D0"/>
<stop offset="1" stop-color="#01A3A4"/>
</linearGradient>
<linearGradient id="paint1_linear_1_759" x1="453.472" y1="120.459" x2="-158.672" y2="504.07" gradientUnits="userSpaceOnUse">
<stop offset="0.0300488" stop-color="white"/>
<stop offset="0.602093" stop-color="white" stop-opacity="0.01"/>
</linearGradient>
<linearGradient id="paint2_linear_1_759" x1="1131" y1="195.859" x2="518.854" y2="579.47" gradientUnits="userSpaceOnUse">
<stop offset="0.216877" stop-color="white"/>
<stop offset="0.600656" stop-color="white" stop-opacity="0.01"/>
</linearGradient>
<clipPath id="clip0_1_759">
<rect width="375" height="293" fill="white"/>
</clipPath>
</defs>
</svg>
